<svg xmlns="http://www.w3.org/2000/svg" width="34" height="34.303" viewBox="0 0 34 34.303">
  <g id="Group_78" data-name="Group 78" transform="translate(-2281.667 123)">
    <path id="Subtraction_20" data-name="Subtraction 20" d="M10.414,27.038a11.961,11.961,0,0,1-1.8-.135,10.746,10.746,0,0,1-2.4-.651,9.757,9.757,0,0,1-2.037-1.119,9.531,9.531,0,0,1-1.608-1.461A9.863,9.863,0,0,1,1.335,21.9,11.022,11.022,0,0,1,.069,17.754a13.76,13.76,0,0,1,.348-4.7,16.657,16.657,0,0,1,1.9-4.6A18.234,18.234,0,0,1,5.445,4.554,17.6,17.6,0,0,1,9.573,1.632,14.939,14.939,0,0,1,14.5.1,13.048,13.048,0,0,1,16.093,0a11.258,11.258,0,0,1,3.389.506,10.02,10.02,0,0,1,2.2,1,9.616,9.616,0,0,1,1.864,1.481,9.78,9.78,0,0,1,1.5,1.985,10.525,10.525,0,0,1,1,2.393,11.9,11.9,0,0,1,.424,2.8,13.969,13.969,0,0,1-.244,3.064,15.956,15.956,0,0,1-.93,3.112,17.356,17.356,0,0,1-1.522,2.877A18.3,18.3,0,0,1,19.4,23.853a17.349,17.349,0,0,1-2.592,1.6,15.675,15.675,0,0,1-2.753,1.069A13.455,13.455,0,0,1,10.414,27.038Zm5.15-25.566c-.32,0-.648.015-.975.046a12.374,12.374,0,0,0-4.279,1.233A15.494,15.494,0,0,0,6.6,5.31,16.853,16.853,0,0,0,3.694,8.833a15.757,15.757,0,0,0-1.838,4.239,12.85,12.85,0,0,0-.422,4.346A9.788,9.788,0,0,0,2.5,21.2,8.02,8.02,0,0,0,5,24.066,8.3,8.3,0,0,0,8.876,25.5a9.879,9.879,0,0,0,1.117.063,11.319,11.319,0,0,0,3.563-.6,14.563,14.563,0,0,0,4.522-2.5,16.719,16.719,0,0,0,3.669-4.113,15.507,15.507,0,0,0,2.114-5.172,11.906,11.906,0,0,0,.014-5.04A8.8,8.8,0,0,0,22,4.3,7.874,7.874,0,0,0,18.745,2.03,9,9,0,0,0,15.565,1.472Z" transform="translate(2285.375 -119.171)" fill="#ff9800"/>
    <path id="Path_508" data-name="Path 508" d="M1737.51,617.857l-11.843.532.463-1.388Z" transform="translate(556 -723.508)" fill="#ff9800"/>
    <path id="Path_497" data-name="Path 497" d="M1725.667,617.532l11.843-.532-.463,1.388Z" transform="translate(578.157 -723.508)" fill="#ff9800"/>
    <path id="Path_498" data-name="Path 498" d="M1870.333,497.356l3.071-11.023h-1.557Z" transform="translate(429.592 -609.333)" fill="#ff9800"/>
    <path id="Path_499" data-name="Path 499" d="M1873.4,486.333l-3.071,11.023h1.557Z" transform="translate(423.839 -586.053)" fill="#ff9800"/>
    <path id="Path_500" data-name="Path 500" d="M1814.951,572.63h3.024l.412-3.127A11.164,11.164,0,0,0,1814.951,572.63Z" transform="translate(477.985 -682.006)" fill="#ff9800"/>
    <path id="Path_501" data-name="Path 501" d="M1818.387,569.5h-3.024l-.412,3.127A11.165,11.165,0,0,0,1818.387,569.5Z" transform="translate(485.077 -671.417)" fill="#ff9800"/>
    <path id="Path_502" data-name="Path 502" d="M1814.951,569.5h3.15l-.493,3.618S1815.672,572.763,1814.951,569.5Z" transform="translate(476.596 -671.404)" fill="#ff9800"/>
    <path id="Path_503" data-name="Path 503" d="M1818.1,573.121h-3.15l.493-3.618S1817.379,569.861,1818.1,573.121Z" transform="translate(486.752 -682.51)" fill="#ff9800"/>
    <path id="Path_504" data-name="Path 504" d="M1788.616,550.659l-.572-.267a15.1,15.1,0,0,1,2.618-3.908,14.677,14.677,0,0,1,2.862-2.384,13.986,13.986,0,0,1,2.307-1.189,8.242,8.242,0,0,1,.966-.329l.152.612a7.89,7.89,0,0,0-.906.311,13.368,13.368,0,0,0-2.2,1.141A14.251,14.251,0,0,0,1788.616,550.659Z" transform="translate(501.495 -658.483)" fill="#ff9800"/>
    <path id="Path_505" data-name="Path 505" d="M1789.858,552.029l-.152-.613.076.306-.076-.306a7.915,7.915,0,0,0,.906-.311,13.378,13.378,0,0,0,2.2-1.141,14.253,14.253,0,0,0,5.226-6.013l.572.267a15.106,15.106,0,0,1-2.618,3.908,14.681,14.681,0,0,1-2.862,2.384,13.984,13.984,0,0,1-2.307,1.189A8.24,8.24,0,0,1,1789.858,552.029Z" transform="translate(508.248 -647.419)" fill="#ff9800"/>
    <path id="Path_506" data-name="Path 506" d="M1793.651,553.34a4.909,4.909,0,0,1-.943-.207,6.562,6.562,0,0,1-2.022-1.043,6.7,6.7,0,0,1-2.007-2.525,8.818,8.818,0,0,1-.645-2,12.639,12.639,0,0,1-.228-2.578l.631.005c-.024,3.027.861,5.246,2.631,6.6a5.644,5.644,0,0,0,2.636,1.122Z" transform="translate(500.315 -648.47)" fill="#ff9800"/>
    <path id="Path_507" data-name="Path 507" d="M1795.99,550.87l-.631-.005c.024-3.027-.861-5.246-2.632-6.6a5.645,5.645,0,0,0-2.636-1.122l.054-.629a4.911,4.911,0,0,1,.943.207,6.559,6.559,0,0,1,2.022,1.043,6.7,6.7,0,0,1,2.007,2.525,8.824,8.824,0,0,1,.645,2A12.639,12.639,0,0,1,1795.99,550.87Z" transform="translate(512.288 -658.68)" fill="#ff9800"/>
    <ellipse id="Ellipse_18" data-name="Ellipse 18" cx="1.221" cy="1.042" rx="1.221" ry="1.042" transform="translate(2297.071 -105.534) rotate(-47)" fill="#ff9800"/>
  </g>
</svg>
