<svg xmlns="http://www.w3.org/2000/svg" width="222.345" height="72.094" viewBox="0 0 222.345 72.094">
  <g id="Group_60" data-name="Group 60" transform="translate(-21.19 -39.375)">
    <g id="Group_59" data-name="Group 59" transform="matrix(-0.407, 0.914, -0.914, -0.407, 151.323, 51.964)">
      <g id="Group_58" data-name="Group 58" transform="translate(-1941.667 313.103)">
        <path id="Subtraction_19" data-name="Subtraction 19" d="M21.156,54.926a24.3,24.3,0,0,1-3.659-.275,21.83,21.83,0,0,1-4.873-1.323,19.821,19.821,0,0,1-4.138-2.272,19.361,19.361,0,0,1-3.267-2.967,20.037,20.037,0,0,1-2.508-3.6A22.39,22.39,0,0,1,.141,36.066a27.953,27.953,0,0,1,.707-9.558A33.838,33.838,0,0,1,4.71,17.157a37.041,37.041,0,0,1,6.352-7.905,35.743,35.743,0,0,1,8.384-5.936A30.349,30.349,0,0,1,29.459.2,26.506,26.506,0,0,1,32.692,0a22.87,22.87,0,0,1,6.884,1.028,20.356,20.356,0,0,1,4.473,2.024,19.534,19.534,0,0,1,3.786,3.008,19.868,19.868,0,0,1,3.043,4.033A21.38,21.38,0,0,1,52.9,14.955a24.181,24.181,0,0,1,.862,5.679,28.378,28.378,0,0,1-.5,6.225,32.415,32.415,0,0,1-1.89,6.322,35.257,35.257,0,0,1-3.092,5.845A37.167,37.167,0,0,1,39.4,48.457,35.244,35.244,0,0,1,34.137,51.7a31.843,31.843,0,0,1-5.593,2.173A27.333,27.333,0,0,1,21.156,54.926ZM31.619,2.991c-.65,0-1.317.031-1.982.093a25.138,25.138,0,0,0-8.692,2.5,31.475,31.475,0,0,0-7.54,5.2,34.236,34.236,0,0,0-5.9,7.158,32.01,32.01,0,0,0-3.735,8.61,26.1,26.1,0,0,0-.858,8.828,19.883,19.883,0,0,0,2.168,7.691,16.293,16.293,0,0,0,5.07,5.816,16.863,16.863,0,0,0,7.882,2.918,20.067,20.067,0,0,0,2.269.128,22.994,22.994,0,0,0,7.239-1.217,29.583,29.583,0,0,0,9.186-5.086,33.963,33.963,0,0,0,7.454-8.355,31.5,31.5,0,0,0,4.294-10.506A24.187,24.187,0,0,0,48.5,16.533a17.884,17.884,0,0,0-3.816-7.788,16,16,0,0,0-6.6-4.621A18.289,18.289,0,0,0,31.619,2.991Z" transform="translate(1974.199 -264.008)" fill="#ff9800"/>
        <path id="Path_445" data-name="Path 445" d="M1749.725,618.74l-26.292.98,3.174-2.72Z" transform="translate(241 -855.285)"/>
        <path id="Path_451" data-name="Path 451" d="M1725.667,618.08l27.713-2.707-4.595,4.447Z" transform="translate(286.011 -855.285)"/>
        <path id="Path_452" data-name="Path 452" d="M1870.333,508.725l8.673-26.759-5.6,4.368Z" transform="translate(133.425 -758.121)"/>
        <path id="Path_446" data-name="Path 446" d="M1876.572,486.333l-6.239,22.392,4.176-2.641Z" transform="translate(121.738 -710.828)"/>
        <path id="Path_447" data-name="Path 447" d="M1814.951,575.855h6.142l.838-6.352A22.679,22.679,0,0,0,1814.951,575.855Z" transform="translate(174.608 -819.966)" fill="#ff9800"/>
        <path id="Path_453" data-name="Path 453" d="M1821.931,569.5h-6.142l-.838,6.352A22.682,22.682,0,0,0,1821.931,569.5Z" transform="translate(189.016 -798.456)" fill="#ff9800"/>
        <path id="Path_448" data-name="Path 448" d="M1814.951,569.5h6.4l-1,7.349S1816.416,576.126,1814.951,569.5Z" transform="translate(171.787 -798.429)" fill="#ff9800"/>
        <path id="Path_454" data-name="Path 454" d="M1821.349,576.852h-6.4l1-7.349S1819.884,570.229,1821.349,576.852Z" transform="translate(192.418 -820.99)" fill="#ff9800"/>
        <path id="Path_449" data-name="Path 449" d="M1789.206,558.99l-1.162-.542a30.676,30.676,0,0,1,5.319-7.939,29.818,29.818,0,0,1,5.814-4.843,28.414,28.414,0,0,1,4.687-2.416,16.724,16.724,0,0,1,1.963-.668l.309,1.244a16.036,16.036,0,0,0-1.841.632,27.169,27.169,0,0,0-4.474,2.317A28.947,28.947,0,0,0,1789.206,558.99Z" transform="translate(194.616 -799.948)" fill="#ff9800"/>
        <path id="Path_455" data-name="Path 455" d="M1790.015,560.36l-.308-1.244.154.622-.155-.622a16.038,16.038,0,0,0,1.841-.632,27.173,27.173,0,0,0,4.474-2.317,28.949,28.949,0,0,0,10.615-12.214l1.162.542a30.683,30.683,0,0,1-5.319,7.939,29.822,29.822,0,0,1-5.814,4.843,28.408,28.408,0,0,1-4.687,2.416A16.783,16.783,0,0,1,1790.015,560.36Z" transform="translate(210.047 -776.059)"/>
        <path id="Path_450" data-name="Path 450" d="M1799.68,561.954a9.985,9.985,0,0,1-1.916-.42,13.332,13.332,0,0,1-4.107-2.118,13.612,13.612,0,0,1-4.078-5.13,17.923,17.923,0,0,1-1.31-4.061,25.665,25.665,0,0,1-.462-5.237l1.282.01c-.049,6.148,1.75,10.656,5.346,13.4a11.466,11.466,0,0,0,5.356,2.28Z" transform="translate(191.972 -777.124)"/>
        <path id="Path_456" data-name="Path 456" d="M1802.075,559.483l-1.282-.01c.049-6.149-1.75-10.656-5.346-13.4a11.467,11.467,0,0,0-5.356-2.28l.11-1.277a9.975,9.975,0,0,1,1.916.42,13.33,13.33,0,0,1,4.107,2.118,13.61,13.61,0,0,1,4.078,5.13,17.907,17.907,0,0,1,1.31,4.061A25.681,25.681,0,0,1,1802.075,559.483Z" transform="translate(218.651 -800.413)"/>
        <ellipse id="Ellipse_10" data-name="Ellipse 10" cx="2.481" cy="2.118" rx="2.481" ry="2.118" transform="translate(1997.96 -236.305) rotate(-47)"/>
      </g>
    </g>
    <path id="Path_455-2" data-name="Path 455" d="M0,0H133V25H0Z" transform="translate(65 59)" fill="#fff"/>
    <text id="Firearms" transform="translate(66.534 81.185)" font-size="26" font-family="FerocityRegular, Ferocity" letter-spacing="0.05em"><tspan x="0" y="0">FIREARMS</tspan></text>
    <text id="Shop" transform="translate(92 100)" fill="#ff9800" font-size="20" font-family="Blender-Bold, Blender" font-weight="700" letter-spacing="0.1em"><tspan x="0" y="0">SHOP</tspan></text>
  </g>
</svg>
